<svg width="549" height="820" viewBox="0 0 549 820" fill="none" xmlns="http://www.w3.org/2000/svg">
<path fill="#04161A" d="M150.712 185.634C143.948 194.41 140.102 205.311 140.102 216.774V302.273C140.102 320.939 150.299 338.114 166.687 347.049L249.619 392.27C257.228 396.419 265.631 398.494 274.034 398.494V355.648C270.08 355.648 266.125 354.672 262.544 352.719L195.342 316.076C187.631 311.871 182.832 303.788 182.832 295.005V224.043C182.832 218.195 184.959 212.658 188.656 208.369L150.712 185.634Z"/>
<path fill="#3A6FB3" d="M397.355 185.634C404.119 194.41 407.965 205.311 407.965 216.774V302.273C407.965 320.939 397.768 338.114 381.381 347.049L298.449 392.27C290.839 396.419 282.437 398.494 274.034 398.494V355.648C277.988 355.648 281.942 354.672 285.523 352.719L352.725 316.076C360.437 311.87 365.236 303.788 365.236 295.005V224.043C365.236 218.195 363.109 212.658 359.411 208.369L397.355 185.634Z"/>
<path fill="#3BBE70" d="M397.356 185.634C393.106 180.12 387.704 175.446 381.381 171.998L298.449 126.777C283.23 118.479 264.838 118.479 249.619 126.777L166.687 171.998C160.364 175.446 154.962 180.121 150.712 185.634L188.656 208.369C190.513 206.216 192.765 204.377 195.342 202.972L262.544 166.328C269.707 162.423 278.362 162.423 285.524 166.328L352.726 202.972C355.303 204.377 357.555 206.216 359.412 208.369L397.356 185.634Z"/>
<path fill="#4385F6" d="M274.034 398.494C282.437 398.494 290.839 396.419 298.449 392.27L381.381 347.049C397.768 338.114 407.965 320.939 407.965 302.273V216.774C407.965 205.311 404.119 194.41 397.355 185.634L502.273 122.772C531.205 166.211 548.067 218.38 548.067 274.487C548.067 388.889 436.541 562.452 348.038 700.184C319.459 744.661 293.281 785.401 274.034 819.206V398.494Z"/>
<path fill="#092F42" d="M274.034 398.494C265.631 398.494 257.228 396.419 249.619 392.27L166.687 347.049C150.299 338.114 140.102 320.939 140.102 302.273V216.774C140.102 205.311 143.948 194.41 150.712 185.634L45.7946 122.772C16.8619 166.211 0 218.38 0 274.487C0 388.889 111.526 562.452 200.029 700.184C228.608 744.661 254.787 785.401 274.034 819.206V398.494Z"/>
<path fill="#3DDB84" d="M150.712 185.634L45.7944 122.772C94.9057 49.0365 178.796 0.453094 274.034 0.453094C369.271 0.453094 453.162 49.0366 502.273 122.772L397.356 185.634C393.106 180.121 387.704 175.446 381.381 171.998L298.449 126.777C283.23 118.479 264.838 118.479 249.618 126.777L166.687 171.998C160.363 175.446 154.962 180.121 150.712 185.634Z"/>
</svg>
